<svg width="26" height="26" viewBox="0 0 26 26" fill="none" xmlns="http://www.w3.org/2000/svg">
<g filter="url(#filter0_d_1367_9995)">
<path d="M13.292 3.2503C14.0407 2.94409 14.8998 3.11336 15.4764 3.68068L16.8777 5.05939C17.1655 5.34247 17.5046 5.56797 17.877 5.72375L19.6897 6.48211C20.4368 6.79468 20.9255 7.52274 20.9318 8.3326L20.9469 10.2909C20.9501 10.6953 21.0306 11.0954 21.1842 11.4696L21.9276 13.2804C22.2355 14.0305 22.0658 14.892 21.4963 15.4693L20.1216 16.8628C19.8376 17.1507 19.6113 17.4904 19.455 17.8634L18.6981 19.6696C18.3852 20.4166 17.6568 20.9048 16.847 20.9107L14.8821 20.9248C14.4784 20.9277 14.0791 21.0077 13.7055 21.1604L13.9223 21.6905L13.7055 21.1604L11.886 21.9046C11.1373 22.2108 10.2781 22.0415 9.7015 21.4742L8.30021 20.0955C8.01249 19.8124 7.67333 19.5869 7.30097 19.4311L5.48827 18.6728C4.74114 18.3602 4.25245 17.6321 4.24618 16.8223L4.23101 14.864C4.22788 14.4595 4.14734 14.0594 3.99375 13.6853L3.25036 11.8745C2.94242 11.1244 3.11216 10.2628 3.68161 9.6856L5.05632 8.29207C5.34035 8.00415 5.56664 7.6645 5.72294 7.29148L6.47979 5.48527C6.79279 4.73832 7.52112 4.25004 8.33099 4.24422L10.2959 4.23012C10.6995 4.22722 11.0988 4.14723 11.4724 3.99444L13.292 3.2503Z" fill="url(#paint0_linear_1367_9995)" stroke="white" stroke-width="1.14537"/>
<path d="M8.46055 13.3811C8.85571 15.4647 10.6704 17.0393 12.8497 17.0393C13.3339 17.0393 13.8 16.9614 14.237 16.8173C13.3497 16.4897 12.355 16.018 11.3448 15.4291C10.2176 14.7722 9.22373 14.0585 8.46084 13.3811H8.46055Z" fill="white"/>
<path d="M12.8432 12.8829C13.0339 12.8829 13.1886 12.7267 13.1886 12.5342C13.1886 12.3416 13.0339 12.1855 12.8432 12.1855C12.6524 12.1855 12.4978 12.3416 12.4978 12.5342C12.4978 12.7267 12.6524 12.8829 12.8432 12.8829Z" fill="white"/>
<path d="M17.7725 15.1468C17.6139 14.8315 17.3553 14.4891 17.0262 14.137C17.2153 13.637 17.3194 13.0946 17.3194 12.5276C17.3191 10.0356 15.3181 8.01562 12.8497 8.01562C11.4254 8.01562 10.1568 8.6882 9.33849 9.73572C8.95945 9.65782 8.61404 9.62158 8.32064 9.63756C7.94414 9.65782 7.55322 9.77139 7.35904 10.1112C7.16457 10.4514 7.26265 10.8497 7.43337 11.189C7.56057 11.4418 7.75221 11.7118 7.99247 11.9906C8.08886 12.1024 8.19288 12.2154 8.30453 12.3296C8.32997 12.3555 8.35597 12.3818 8.38226 12.408C8.44812 12.474 8.51709 12.5404 8.58804 12.6075C9.35771 13.3326 10.4216 14.1161 11.6509 14.8324C12.8952 15.5577 14.114 16.1005 15.1285 16.4089C15.2455 16.4446 15.3603 16.4771 15.4716 16.5065C16.0075 16.6475 16.4926 16.7191 16.8855 16.6977C17.262 16.6775 17.6529 16.5639 17.8474 16.224C18.0418 15.8839 17.9438 15.4856 17.773 15.1463L17.7725 15.1468ZM8.48402 11.5591C8.26835 11.3091 8.11091 11.0837 8.01424 10.8917C7.8715 10.608 7.89976 10.4816 7.92322 10.4405C7.94668 10.3994 8.04109 10.3116 8.35569 10.2944C8.51878 10.2856 8.71636 10.2979 8.94418 10.3327C8.73502 10.7113 8.57842 11.1234 8.48373 11.5591H8.48402ZM14.4026 12.8112C14.2723 13.5617 13.6239 14.1321 12.8432 14.1321C11.9689 14.1321 11.26 13.4165 11.26 12.5339C11.26 12.0488 11.4743 11.6139 11.8123 11.3208C12.0223 11.1388 12.2798 11.0115 12.5636 10.9604C12.6544 10.9442 12.7476 10.9356 12.8429 10.9356C13.5224 10.9356 14.1021 11.3682 14.3266 11.9754C14.3907 12.1492 14.4261 12.3376 14.4261 12.5339C14.4261 12.6283 14.4179 12.7211 14.4023 12.8112H14.4026ZM17.2826 15.8956C17.2592 15.9364 17.1647 16.0243 16.8501 16.0414C16.5861 16.0557 16.2325 16.0146 15.804 15.9127C16.1681 15.5888 16.4796 15.2059 16.7238 14.7787C16.9386 15.0278 17.0952 15.2524 17.1916 15.4445C17.3343 15.7281 17.3061 15.8545 17.2826 15.8956Z" fill="white"/>
</g>
<defs>
<filter id="filter0_d_1367_9995" x="0.689933" y="1.91552" width="23.7979" height="23.7715" filterUnits="userSpaceOnUse" color-interpolation-filters="sRGB">
<feFlood flood-opacity="0" result="BackgroundImageFix"/>
<feColorMatrix in="SourceAlpha" type="matrix" values="0 0 0 0 0 0 0 0 0 0 0 0 0 0 0 0 0 0 127 0" result="hardAlpha"/>
<feOffset dy="1.22364"/>
<feGaussianBlur stdDeviation="0.917729"/>
<feComposite in2="hardAlpha" operator="out"/>
<feColorMatrix type="matrix" values="0 0 0 0 0 0 0 0 0 0 0 0 0 0 0 0 0 0 0.12 0"/>
<feBlend mode="normal" in2="BackgroundImageFix" result="effect1_dropShadow_1367_9995"/>
<feBlend mode="normal" in="SourceGraphic" in2="effect1_dropShadow_1367_9995" result="shape"/>
</filter>
<linearGradient id="paint0_linear_1367_9995" x1="14.6586" y1="2.07264" x2="10.5193" y2="23.0822" gradientUnits="userSpaceOnUse">
<stop stop-color="#F9AFA2"/>
<stop offset="1" stop-color="#EA9260"/>
</linearGradient>
</defs>
</svg>
